HIERARCHY
ROOT Hips
{
  OFFSET 2.26061 22.2878 23.7974
  CHANNELS 6 Xposition Yposition Zposition Zrotation Xrotation Yrotation
  JOINT LeftUpLeg
  {
    OFFSET 8.64259 1.95398 -2.38835
    CHANNELS 3 Zrotation Xrotation Yrotation
    JOINT LeftLeg
    {
      OFFSET 43.7702 0 0
      CHANNELS 3 Zrotation Xrotation Yrotation
      JOINT LeftFoot
      {
        OFFSET 40.6238 0 0
        CHANNELS 3 Zrotation Xrotation Yrotation
        JOINT LeftToeBase
        {
          OFFSET 12.7242 0 0
          CHANNELS 3 Zrotation Xrotation Yrotation
          End Site
          {
            OFFSET 0 0 0
          }
        }
      }
    }
  }
  JOINT RightUpLeg
  {
    OFFSET -8.2249 1.95398 -2.59336
    CHANNELS 3 Zrotation Xrotation Yrotation
    JOINT RightLeg
    {
      OFFSET 43.5653 0 0
      CHANNELS 3 Zrotation Xrotation Yrotation
      JOINT RightFoot
      {
        OFFSET 40.6238 0 0
        CHANNELS 3 Zrotation Xrotation Yrotation
        JOINT RightToeBase
        {
          OFFSET 12.7242 0 0
          CHANNELS 3 Zrotation Xrotation Yrotation
          End Site
          {
            OFFSET 0 0 0
          }
        }
      }
    }
  }
  JOINT Spine
  {
    OFFSET 0.165834 0.87714 6.61349
    CHANNELS 3 Zrotation Xrotation Yrotation
    JOINT Spine1
    {
      OFFSET 7.38963 1.71661e-005 0
      CHANNELS 3 Zrotation Xrotation Yrotation
      JOINT Spine2
      {
        OFFSET 11.9445 1.14441e-005 0
        CHANNELS 3 Zrotation Xrotation Yrotation
        JOINT Spine3
        {
          OFFSET 14.7254 4.19617e-005 0
          CHANNELS 3 Zrotation Xrotation Yrotation
          JOINT Spine4
          {
            OFFSET 10.9679 0 0
            CHANNELS 3 Zrotation Xrotation Yrotation
            JOINT RightShoulder
            {
              OFFSET 2.46616 -1.6653 3.69651
              CHANNELS 3 Zrotation Xrotation Yrotation
              JOINT RightArm
              {
                OFFSET 13.0012 0 0
                CHANNELS 3 Zrotation Xrotation Yrotation
                JOINT RightForeArm
                {
                  OFFSET 28.7848 1.52588e-005 0
                  CHANNELS 3 Zrotation Xrotation Yrotation
                  JOINT RightHand
                  {
                    OFFSET 26.5688 1.52588e-005 0
                    CHANNELS 3 Zrotation Xrotation Yrotation
                    End Site
                    {
                      OFFSET 0 0 0
                    }
                  }
                }
              }
            }
            JOINT LeftShoulder
            {
              OFFSET 2.38034 -1.29275 -3.7523
              CHANNELS 3 Zrotation Xrotation Yrotation
              JOINT LeftArm
              {
                OFFSET 16.3182 6.10351e-005 0
                CHANNELS 3 Zrotation Xrotation Yrotation
                JOINT LeftForeArm
                {
                  OFFSET 27.0901 0 0
                  CHANNELS 3 Zrotation Xrotation Yrotation
                  JOINT LeftHand
                  {
                    OFFSET 24.5451 1.52588e-005 0
                    CHANNELS 3 Zrotation Xrotation Yrotation
                    End Site
                    {
                      OFFSET 0 0 0
                    }
                  }
                }
              }
            }
            JOINT Neck
            {
              OFFSET 5.0226 -0.0266342 0
              CHANNELS 3 Zrotation Xrotation Yrotation
              JOINT Head
              {
                OFFSET 6.69363 2.86102e-005 0
                CHANNELS 3 Zrotation Xrotation Yrotation
                End Site
                {
                  OFFSET 0 0 0
                }
              }
            }
          }
        }
      }
    }
  }
}
MOTION
Frames:	17
Frame Time:	0.0416667
-125.929 84.5526 -158.989 91.4913 -37.2305 91.6703 83.1956 21.7131 52.4679 -145.919 43.937 92.7991 55.9438 -10.6636 23.1188 38.6513 -29.7816 112.372 174.814 53.868 96.1071 -50.4438 -1.28941 -0.0181648 60.7237 2.07946 1.69777 34.8502 0.374084 -5.90218 -1.18221 7.98619 -89.7427 10.9109 -2.23475 0.721822 -0.758361 -2.20081 0.819515 -23.3091 -2.34831 0.0164608 -3.29644 -2.34831 0.0164483 89.3747 -54.6572 -100.694 18.2583 -1.54265 45.4839 -1.70698 -20.9715 -23.9968 -3.1833 -0.685116 7.50492 -96.0578 -44.0106 67.7732 -6.8915 -9.70334 -16.2159 13.9703 -6.26789 -104.857 27.3124 2.49872 5.38902 15.1937 1.26321 -6.29658 0.191594 2.96776 4.95769 
-115.89 75.7983 -150.493 88.4758 -34.6441 89.178 37.5384 54.6534 67.5177 -103.682 62.0201 22.8555 51.0931 -8.33974 26.8612 42.0878 -33.3961 121.11 173.496 62.8097 94.1957 -50.6002 -3.53983 0.404698 53.7823 4.0653 3.36773 37.9889 0.355996 -7.40562 -1.30011 7.75782 -89.8917 11.3625 -2.53647 0.469322 -0.306131 -2.51336 0.580564 -22.8608 -2.5602 -0.315198 -2.8481 -2.56019 -0.315202 90.8116 -55.6443 -98.4201 19.6349 -1.55064 34.3433 -0.446932 -19.1262 -24.8186 -5.24329 -0.842906 7.40674 -98.744 -46.1865 64.4411 -9.73772 0.293112 -16.726 12.4347 -0.1692 -88.0356 25.3542 2.15028 4.7001 19.6252 0.650653 -4.92193 -2.60165 2.06884 3.9878 
-104.44 70.8389 -141.252 84.3177 -35.9051 90.0755 81.2026 48.9916 52.6502 -130.306 81.9373 39.1357 134.646 -16.3828 65.3556 40.4643 18.3502 64.9718 157.44 69.9099 108.409 -73.1301 -4.28212 6.28867 64.7923 -3.13909 -1.43396 26.5554 0.184194 -3.52408 -1.2427 7.26255 -90.7824 12.3345 -2.8408 -1.24061 0.666189 -2.89264 -1.11431 -21.8824 -2.33666 -2.03726 -1.86974 -2.33665 -2.03727 90.2571 -57.6139 -98.821 14.3632 -4.76453 18.605 3.23596 -21.9097 -27.6787 -6.19711 -0.808958 5.12354 -102.473 -49.119 60.0918 -10.2577 12.6184 -15.0098 4.6913 3.333 -55.3333 23.9125 1.53175 2.57 22.6276 3.42886 -0.0876049 -5.34902 3.30585 3.519 
-90.2611 72.1792 -131.489 87.8294 -43.0464 92.5843 120.455 40.832 64.6257 64.3111 60.441 -175.044 153.896 1.01816 72.5635 38.6791 9.79184 39.0627 167.109 60.0957 109.163 -85.9247 -0.683651 -0.434178 81.4863 -6.04346 -2.75323 28.5941 0.246642 -3.91532 -0.412941 7.74485 -90.845 11.3741 -1.216 -1.56263 -0.297224 -1.28362 -1.50761 -22.8262 -0.690264 -1.85576 -2.81354 -0.690258 -1.85576 86.7936 -54.5562 -104.45 16.7877 -8.36951 2.08578 3.3901 -19.6427 -37.6401 -13.6693 -1.15385 3.77214 -109.114 -52.2726 52.1701 -9.64291 17.895 -9.49642 -2.02455 9.86948 -30.8071 17.0853 1.66654 5.89007 24.8492 4.4129 3.28906 -5.12882 3.18234 0.756397 
-75.2133 84.5687 -117.603 86.7943 -44.6622 88.0385 127.194 46.7748 85.2377 74.7188 44.6343 173.872 117.284 -9.60364 66.3084 37.4787 9.09327 53.1938 177.09 35.7279 99.3113 -69.6505 -2.38753 -3.99993 82.3708 -5.03153 -2.76051 36.6333 0.405498 -4.49343 0.405912 7.70227 -90.2332 11.4802 0.698497 -0.535173 -0.190599 0.674271 -0.565405 -22.728 0.827078 -0.300487 -2.71534 0.827094 -0.300493 87.5447 -52.6058 -103.87 16.2668 -10.3595 -9.10341 -2.36393 -17.5921 -55.7724 -18.7934 -0.588108 -1.22246 -109.326 -53.5433 52.4754 -16.5067 16.6322 2.67619 -0.594108 18.4066 -22.9504 12.9858 1.87355 10.0347 21.1334 1.15526 2.19558 -2.78803 0.45757 0.344036 
-63.0075 99.3915 -106.695 89.6247 -46.4777 84.6832 144.861 51.4751 93.1499 97.92 34.792 168.105 72.7044 -32.9509 55.5171 34.3919 0.228551 71.0468 178.413 15.7526 91.2517 -46.2575 -5.59724 -6.84046 54.5465 2.04192 2.01597 28.8057 -0.129583 0.0846071 0.906004 7.72894 -89.4687 11.4116 2.05087 0.851803 -0.257906 2.08636 0.760682 -22.8006 1.70005 1.42889 -2.7879 1.70006 1.42888 88.304 -50.0294 -103.406 15.0895 -10.1029 -15.0964 -11.349 -14.6872 -70.9245 -20.7262 -0.686511 -1.0571 -106.431 -53.2354 56.2638 -21.7126 16.1271 17.692 -1.03209 20.0247 -19.3779 8.53245 1.13791 8.44314 10.9078 -0.918434 3.35776 2.11337 -1.7129 -2.28483 
-50.7425 106.542 -97.7101 88.804 -50.1152 83.6008 148.972 52.4043 97.1174 116.769 37.2314 165.968 58.9399 -34.2943 48.0307 33.8859 -1.29989 71.0936 177.636 11.8459 91.1236 -36.6774 -15.5363 -7.39234 47.8461 4.0626 3.6539 22.8129 0.912468 -10.3735 1.36844 7.62257 -89.4445 11.6206 2.98235 0.797598 -0.0470473 3.01456 0.66545 -22.6024 2.60471 1.65753 -2.58973 2.60471 1.65753 89.6149 -45.1249 -102.641 15.8549 -9.22316 -19.0174 -16.7089 -8.03079 -83.888 -17.5945 -0.608974 -1.16905 -104.087 -51.3117 58.6968 -28.4845 13.5461 31.7287 -1.78878 15.5739 -17.1537 4.60214 0.541322 5.97041 9.97069 -0.847918 7.96218 0.423233 -2.6236 -5.35958 
-38.4183 108.123 -88.1212 87.8183 -52.9553 82.7235 148.005 47.7164 97.8682 139.944 43.7101 159.477 54.2515 -34.5286 42.5006 34.0675 -0.93134 72.2536 175.415 11.998 91.0369 -26.1924 -9.21828 -3.02005 50.6586 3.50947 3.1374 27.0359 0.418995 -6.54416 1.68878 7.56017 -89.397 11.745 3.64199 0.817956 0.0789965 3.67445 0.656663 -22.4881 3.22763 1.87568 -2.47542 3.22764 1.87568 90.1743 -43.7422 -102.092 14.4966 -7.54604 -21.5325 -18.7616 -3.20702 -92.6985 -18.134 -0.391716 -2.57397 -100.749 -46.7408 61.6438 -35.5327 9.46497 42.2702 -2.3132 9.9592 -14.7271 2.30758 0.290021 4.89594 11.5161 -0.910241 8.30739 -1.49078 -2.79613 -6.30279 
-25.7818 105.14 -78.1024 88.2761 -53.3593 82.0338 141.304 42.1448 98.6154 164.428 48.4443 149.511 49.1493 -34.9717 35.6903 33.9002 -1.72158 73.0704 173.734 12.4692 90.3902 -24.6256 -7.14473 -0.875412 54.4133 3.21894 2.68426 30.3453 0.481568 -8.25291 1.69266 7.60031 -89.2409 11.658 3.72277 1.12552 -0.00801623 3.76868 0.960366 -22.5731 3.21229 2.19318 -2.56042 3.2123 2.19318 90.3008 -43.487 -101.949 15.8342 -4.4559 -22.3377 -21.0796 1.30306 -101.007 -18.9998 -0.45101 -2.24842 -99.3636 -42.6681 62.1024 -38.9815 5.94072 49.8452 -2.21175 5.90577 -12.4825 -0.757268 0.0203697 3.35948 12.5102 -0.709869 8.72043 -2.35841 -2.71643 -6.44324 
-13.4029 96.6718 -68.6271 93.2645 -54.4431 85.6385 132.472 37.7793 101.646 177.743 52.6475 140.611 45.9976 -34.9393 30.5349 33.4537 -2.94856 71.6987 175.395 11.5382 90.9937 -40.3165 -5.73196 -4.10192 68.7092 -1.21837 -0.303751 35.8843 0.395996 -3.66831 1.80657 7.88697 -89.294 11.0859 3.92362 1.02558 -0.579419 3.96495 0.851649 -23.1499 3.43386 2.1585 -3.13721 3.43385 2.15849 89.8369 -44.2138 -102.521 16.8886 -1.88983 -20.3766 -24.3653 3.92413 -105.805 -17.4731 -0.466199 -2.03417 -100.252 -43.2586 60.9802 -36.2847 5.39087 54.2123 -2.4484 3.89661 -9.94803 -2.22499 -0.122664 3.80974 11.6212 -0.418989 10.1683 -0.218229 -2.80611 -6.73175 
-0.348095 88.5132 -58.5668 96.3695 -53.6383 88.6642 124.887 34.9882 104.102 -177.778 57.6824 135.068 46.1434 -35.0944 28.0795 31.7082 -8.98502 71.4951 175.379 0.5973 92.1145 -48.8828 -0.52736 -7.78958 90.1335 -6.84348 -3.91169 41.0315 0.494977 -2.74105 1.535 8.15751 -89.3675 10.5468 3.34798 0.957188 -1.12006 3.38685 0.808749 -23.68 2.90544 1.91979 -3.66735 2.90545 1.9198 89.2306 -46.4504 -102.907 16.9834 -4.61877 -19.637 -22.0264 0.557065 -101.782 -19.3047 -0.138215 -4.03545 -99.8397 -49.5024 64.0544 -30.076 6.30717 47.8209 -2.80114 2.44871 -6.15099 10.9214 1.53759 9.53315 16.6361 0.776066 8.64011 -1.64364 -1.5518 -4.2695 
14.9176 85.6162 -47.2849 85.9909 -53.1425 83.3152 126.615 39.1315 105.148 175.644 62.8908 134.317 52.3241 -35.0452 31.9676 31.9064 -7.81607 69.172 174.726 -1.67898 90.9007 -52.4418 -8.17562 -8.43067 77.4598 -3.10955 -2.18633 52.2997 0.647005 -3.46336 1.77661 7.38691 -89.5236 12.0987 3.75671 0.530694 0.433219 3.7764 0.364597 -22.1392 3.42332 1.63645 -2.12653 3.42334 1.63645 88.4391 -49.1045 -103.448 20.0505 -7.8997 -8.18107 -14.4868 -7.6335 -88.1832 -18.4967 -0.099997 -4.37724 -100.716 -54.3195 64.5493 -24.4568 6.57526 31.2452 -2.60728 -0.628258 -11.8695 19.9874 3.25188 11.0427 21.2431 -0.0834932 7.00797 -5.41568 -2.10544 -4.05428 
28.4125 82.9121 -36.5712 84.2795 -50.5606 82.5156 138.327 47.9759 96.6056 143.721 68.1246 147.339 68.2752 -30.3155 46.2814 37.4804 9.80923 61.3445 177.647 5.71129 84.484 -76.251 -7.69204 -6.7048 46.1219 5.3013 4.95772 37.7447 0.930236 -2.37676 1.35397 7.15173 -89.3232 12.5586 3.01218 1.00196 0.890617 3.05335 0.868312 -21.6612 2.57184 1.86125 -1.64852 2.57186 1.86126 88.4016 -51.824 -102.797 22.6669 -10.8405 0.491778 1.25068 -9.73853 -56.1672 -14.6643 -0.315231 -2.91618 -105.063 -55.5293 59.0686 -21.0968 6.77272 15.3204 -3.81021 -7.941 -22.644 6.80293 0.123462 0.322424 24.8961 -0.888242 1.71792 -7.89678 -1.3518 -2.03487 
39.5177 82.8812 -27.9873 85.4035 -45.2811 86.449 141.636 44.4748 88.9327 133.565 67.6094 149.457 71.6226 -26.6275 50.1605 39.4629 14.7659 61.6123 179.556 31.1257 89.867 -111.735 -7.44821 -2.66431 32.7728 7.00095 7.7226 27.0865 0.488867 -7.8062 0.381831 7.24776 -89.5838 12.3728 0.956573 0.724115 0.701988 0.987514 0.681303 -21.8332 0.694724 0.97812 -1.82053 0.694735 0.978129 87.6433 -53.5254 -103.488 23.7123 -8.84447 9.74048 5.11653 -17.0454 -33.8537 -11.1319 -0.841485 2.393 -105.633 -51.0124 56.3934 -16.5017 9.75718 -3.84197 -0.308021 2.22568 -38.3636 22.9346 2.10636 4.88366 23.6707 -0.523768 -1.87377 -7.70541 0.084023 -0.0891834 
51.2894 91.761 -19.9383 87.3956 -45.0163 91.5804 147.062 24.7771 78.8795 157.846 58.8541 140.831 59.288 -32.168 41.7419 37.1342 9.25453 66.6482 173.06 54.381 94.9324 -121.912 2.32075 -2.04521 35.8068 3.08549 3.43791 23.3148 0.635518 -8.0956 -0.237584 7.41293 -90.1813 12.0473 -0.557965 -0.300644 0.376438 -0.57065 -0.275805 -22.1591 -0.441812 -0.454442 -2.14645 -0.441795 -0.45444 88.9767 -54.5644 -101.295 20.3531 -3.81505 22.4282 -4.67351 -33.0667 -29.6913 0.482198 -0.594783 8.51665 -101.958 -49.6104 61.0313 -14.0421 2.00885 -9.1651 12.4069 3.58098 -65.0559 24.1461 2.18674 5.27254 21.0027 2.59285 -1.1159 -7.11318 2.80109 1.65488 
62.6012 101.639 -10.4901 88.0985 -41.9007 92.7953 153.278 9.93134 79.263 165.102 46.4117 151.839 51.4926 -36.9642 29.8881 31.7751 -4.88283 60.6253 163.567 64.4867 104.444 -116.065 -0.743942 -2.02007 46.0025 1.1323 1.13795 30.6941 0.403565 -6.46762 -0.791557 7.51027 -90.2496 11.8521 -1.69142 -0.315736 0.182313 -1.70367 -0.24098 -22.3601 -1.51829 -0.809581 -2.34746 -1.51832 -0.809582 89.0478 -54.1472 -101.289 19.2865 -1.6886 37.0018 -6.99335 -32.2809 -28.8773 7.67858 0.0434026 8.93023 -98.0916 -46.2445 65.4514 -11.1876 -3.19951 -10.3059 16.6054 0.364626 -86.1187 22.5164 2.03559 5.24224 16.3192 3.21476 -2.83981 -4.15474 3.84978 2.76347 
74.1205 106.73 -0.449477 88.871 -39.5429 92.0573 155.226 7.30905 81.5892 169.12 41.7766 157.845 48.8276 -37.5785 27.7682 30.7838 -6.60192 58.1428 164.209 64.3562 104.946 -108.028 -0.672477 -1.60822 54.4672 -0.832615 -0.472376 36.0657 0.364141 -5.94246 -1.06137 7.66732 -90.0579 11.5418 -2.13861 0.104121 -0.127428 -2.13196 0.198177 -22.6762 -2.07099 -0.543728 -2.66358 -2.07099 -0.543732 90.0897 -50.7577 -100.509 21.7533 -1.42791 49.3927 -6.40227 -25.4689 -27.4143 10.814 0.292243 6.39633 -96.4655 -43.0571 66.7922 -8.63917 -8.46086 -11.6325 16.3824 -4.97254 -97.1129 23.2906 2.01194 4.85117 12.2066 2.98755 -4.50152 -1.16246 4.04145 5.00516 
